<svg xmlns="http://www.w3.org/2000/svg" viewBox="0 0 512 512" fill="none">
  <rect width="512" height="512" rx="96" fill="#FFFFFF"/>
  <!-- bag handle -->
  <path d="M176 168c0-40 32-64 80-64s80 24 80 64" stroke="#0B1B2B" stroke-width="28" stroke-linecap="round" fill="none"/>
  <!-- left blue fold -->
  <path d="M120 196c0-12 10-22 22-22h96c8 0 14 8 12 16l-36 196c-2 12-12 20-24 20h-48c-14 0-24-12-22-26l22-184z" fill="url(#blue)"/>
  <!-- right orange fold -->
  <path d="M274 174c-2-8 4-16 12-16h96c12 0 22 10 22 22l22 184c2 14-8 26-22 26h-48c-12 0-22-8-24-20l-36-196z" fill="url(#orange)"/>
  <!-- center crease -->
  <path d="M256 188 L256 400" stroke="#0B1B2B" stroke-width="10" stroke-linecap="round" opacity="0.25"/>
  <defs>
    <linearGradient id="blue" x1="120" y1="174" x2="240" y2="410" gradientUnits="userSpaceOnUse">
      <stop stop-color="#3BA3FF"/>
      <stop offset="1" stop-color="#005BFF"/>
    </linearGradient>
    <linearGradient id="orange" x1="274" y1="174" x2="420" y2="410" gradientUnits="userSpaceOnUse">
      <stop stop-color="#FFB020"/>
      <stop offset="1" stop-color="#FF7A00"/>
    </linearGradient>
  </defs>
</svg>
